g yuko_eye
v 0.04381936 -0.0739642 0.7360841
v 0.06086156 -0.06772479 0.7310284
v 0.0447073 -0.07358599 0.7306225
v 0.04324038 -0.07479781 0.7429837
v 0.06398743 -0.0701935 0.7546425
v 0.0429928 -0.07563394 0.7499307
v 0.08776311 -0.06411433 0.7377938
v 0.04322274 -0.07660997 0.7547194
v 0.04375182 -0.07758598 0.7595164
v 0.04473702 -0.07853811 0.764854
v 0.0461957 -0.07950874 0.770031
v 0.04826959 -0.0797293 0.7739103
v 0.05080538 -0.07963023 0.777168
v 0.05397496 -0.07925361 0.7796196
v 0.0576657 -0.07862242 0.781155
v 0.06235825 -0.07780543 0.7819141
v 0.06708591 -0.07715 0.7819517
v 0.07246876 -0.07622385 0.7814129
v 0.07776289 -0.07539001 0.7800116
v 0.08145225 -0.07433657 0.7783381
v 0.08458837 -0.07337364 0.775804
v 0.08734689 -0.07190327 0.7720715
v 0.08892756 -0.07032327 0.7679239
v 0.08990937 -0.06872719 0.762896
v 0.09013299 -0.06717663 0.7575974
v 0.08964992 -0.06578641 0.7505987
v 0.08884341 -0.06461058 0.7436612
v 0.08647224 -0.06383739 0.7320237
v 0.08433035 -0.06392615 0.7271437
v 0.08138047 -0.06430744 0.7231013
v 0.0783813 -0.0647715 0.7199492
v 0.07408932 -0.06555119 0.7175266
v 0.06700987 -0.06735618 0.7159184
v 0.05986933 -0.06944255 0.7159731
v 0.05475491 -0.07100403 0.7169049
v 0.04988492 -0.07233744 0.7196267
v 0.04713266 -0.07285266 0.7230671
v 0.04557368 -0.07319861 0.7266116
v -0.04382062 -0.07396418 0.7360842
v -0.04470855 -0.07358599 0.7306226
v -0.06086282 -0.06772477 0.7310285
v -0.04324165 -0.07479781 0.7429838
v -0.06421261 -0.07019349 0.7546426
v -0.04299404 -0.07563393 0.7499308
v -0.08776434 -0.06411433 0.7377938
v -0.04322397 -0.07660997 0.7547196
v -0.04375309 -0.077586 0.7595164
v -0.04473829 -0.07853812 0.764854
v -0.04619718 -0.07950952 0.770031
v -0.04824022 -0.0797293 0.7739103
v -0.05079732 -0.07963021 0.7771681
v -0.05397454 -0.07925359 0.7796198
v -0.05766696 -0.07862241 0.781155
v -0.06235959 -0.07780541 0.7819142
v -0.06708719 -0.07714999 0.7819518
v -0.07247024 -0.07622384 0.781413
v -0.07776841 -0.07539 0.7800117
v -0.08147264 -0.07433657 0.7783383
v -0.08465712 -0.07337363 0.775804
v -0.08734812 -0.07190324 0.7720716
v -0.08892874 -0.07032327 0.7679239
v -0.08991058 -0.06872718 0.7628961
v -0.0901342 -0.06717663 0.7575975
v -0.0895104 -0.06578641 0.7505988
v -0.08884462 -0.06461058 0.7436612
v -0.0861774 -0.06383739 0.7320238
v -0.08403223 -0.06392612 0.7271438
v -0.08123304 -0.06430741 0.7227054
v -0.07854094 -0.0647715 0.7196797
v -0.07439777 -0.06555116 0.7173855
v -0.06642339 -0.06735618 0.7157841
v -0.0581321 -0.06944256 0.7159951
v -0.05276113 -0.07100402 0.7166757
v -0.048894 -0.07233741 0.71938
v -0.04713395 -0.07285266 0.7221715
v -0.04597342 -0.07319862 0.7253171

vn 0.3264805 0.9430791 0.06334251
vn 0.2244158 0.9699009 0.09449784
vn 0.3413165 0.9398675 0.01233327
vn 0.2884156 0.94951 0.1234792
vn 0.2067613 0.9650876 0.1607968
vn 0.2778331 0.9502605 0.1407607
vn 0.1621351 0.9801768 0.1138668
vn 0.287748 0.9337497 0.2128679
vn 0.2874882 0.9321273 0.2202028
vn 0.2771621 0.9308398 0.2381565
vn 0.2886842 0.9296403 0.2289768
vn 0.304159 0.928831 0.2115667
vn 0.2932971 0.9307665 0.2182895
vn 0.2702748 0.9347312 0.2307143
vn 0.2298371 0.9419721 0.2446703
vn 0.170788 0.9516283 0.2554114
vn 0.1367546 0.9561279 0.2590709
vn 0.1110769 0.961395 0.2517568
vn 0.1155431 0.958899 0.2591576
vn 0.1228798 0.9582671 0.2581178
vn 0.11841 0.9585065 0.2593153
vn 0.1437275 0.9475162 0.2855793
vn 0.1485421 0.9459865 0.2881751
vn 0.140932 0.9514656 0.2735897
vn 0.137613 0.9621272 0.2353166
vn 0.1368327 0.9720092 0.1909837
vn 0.155974 0.9772391 0.1437907
vn 0.1523698 0.9858214 0.07028218
vn 0.1533382 0.987398 0.03914826
vn 0.158047 0.9872934 0.01652008
vn 0.1656347 0.9861867 0.0009570008
vn 0.1975241 0.9796438 -0.03580616
vn 0.2504105 0.964964 -0.07835151
vn 0.2908073 0.9525844 -0.0895215
vn 0.3068789 0.9477307 -0.08736134
vn 0.303399 0.948449 -0.09161668
vn 0.3109734 0.9475301 -0.0740425
vn 0.3334605 0.9426593 -0.01405285
vn -0.3264827 0.9430782 0.06334396
vn -0.341071 0.9400375 -8.052934E-06
vn -0.2234186 0.9698179 0.09765865
vn -0.2867307 0.9498075 0.1251045
vn -0.206362 0.9649918 0.1618817
vn -0.2751366 0.9510186 0.140938
vn -0.1630619 0.9796871 0.1167222
vn -0.2849435 0.9346192 0.212824
vn -0.2847342 0.9330305 0.2199555
vn -0.2745809 0.931714 0.2377273
vn -0.2871278 0.9305565 0.2272051
vn -0.3018712 0.9299335 0.2099941
vn -0.2909808 0.9317803 0.2170616
vn -0.2691492 0.935476 0.229005
vn -0.2295518 0.9424837 0.2429619
vn -0.1709149 0.9519583 0.2540936
vn -0.1368401 0.9563977 0.2580277
vn -0.1113455 0.9615742 0.2509527
vn -0.1155338 0.959157 0.258205
vn -0.1226066 0.9586249 0.256916
vn -0.1189292 0.9585411 0.2589492
vn -0.1453143 0.9472036 0.2858129
vn -0.1497075 0.9459037 0.2878433
vn -0.1420952 0.9513443 0.2734098
vn -0.1389215 0.9615349 0.2369633
vn -0.1387665 0.9717448 0.1909344
vn -0.1580221 0.9771271 0.1423077
vn -0.1542722 0.9850771 0.07631038
vn -0.1556729 0.9871231 0.03679615
vn -0.1617436 0.9867889 0.009301847
vn -0.1701263 0.9853849 -0.008587271
vn -0.1909749 0.9810347 -0.03316136
vn -0.2243567 0.9727606 -0.05831615
vn -0.2629425 0.9628012 -0.0622519
vn -0.3162238 0.9479201 -0.0380768
vn -0.3359376 0.9414786 -0.02764054
vn -0.3338771 0.9422014 -0.02797661
vn -0.3396029 0.9404331 -0.01597998

vt 0.01006575 0.8377002
vt 0.04105661 0.8314837
vt 0.01235831 0.8290707
vt 0.008348817 0.8485056
vt 0.04203383 0.8685797
vt 0.007377378 0.8593175
vt 0.08196998 0.8446927
vt 0.007269458 0.8668149
vt 0.007644739 0.8743328
vt 0.008718554 0.8826929
vt 0.01048811 0.8908514
vt 0.01349236 0.8969955
vt 0.01731141 0.9022039
vt 0.02219306 0.9062322
vt 0.02795793 0.9089084
vt 0.0352881 0.910519
vt 0.04261081 0.9110859
vt 0.0509363 0.910812
vt 0.05909054 0.909251
vt 0.06488135 0.907012
vt 0.06992053 0.9034423
vt 0.07469251 0.8979349
vt 0.07793646 0.8916295
vt 0.08055652 0.8839395
vt 0.08216988 0.8757396
vt 0.08273555 0.8648643
vt 0.08297397 0.8540044
vt 0.07984883 0.8353748
vt 0.07662443 0.827323
vt 0.07244921 0.8198447
vt 0.06860305 0.81463
vt 0.06292146 0.8105013
vt 0.05297893 0.8066081
vt 0.03958176 0.806631
vt 0.03069501 0.8072266
vt 0.02282408 0.8112301
vt 0.01868282 0.8156271
vt 0.01569573 0.8206373
vt 0.01006575 0.7259314
vt 0.01235831 0.7173018
vt 0.04105661 0.7197149
vt 0.008348817 0.7367368
vt 0.04203383 0.7568108
vt 0.007377378 0.7475487
vt 0.08196998 0.7329239
vt 0.007269458 0.7550461
vt 0.007644739 0.762564
vt 0.008718554 0.770924
vt 0.01048811 0.7790825
vt 0.01349236 0.7852267
vt 0.01731141 0.790435
vt 0.02219306 0.7944634
vt 0.02795793 0.7971395
vt 0.0352881 0.7987502
vt 0.04261081 0.7993171
vt 0.0509363 0.7990432
vt 0.05909054 0.7974821
vt 0.06488135 0.7952432
vt 0.06992053 0.7916735
vt 0.07469251 0.786166
vt 0.07793646 0.7798607
vt 0.08055652 0.7721707
vt 0.08216988 0.7639707
vt 0.08273555 0.7530954
vt 0.08297397 0.7422356
vt 0.07984883 0.723606
vt 0.07662443 0.7155541
vt 0.07244921 0.7080759
vt 0.06860305 0.7028612
vt 0.06313819 0.6987996
vt 0.05140891 0.6962488
vt 0.03967226 0.6956934
vt 0.03067225 0.6954646
vt 0.02282408 0.6994612
vt 0.01868282 0.7038583
vt 0.01569573 0.7088684

usemtl Yu_mouth_mat
usemap Yu_mouth_mat
f 1/1/1 2/2/2 3/3/3
f 4/4/4 2/2/2 1/1/1
f 4/4/4 5/5/5 2/2/2
f 6/6/6 5/5/5 4/4/4
f 2/2/2 5/5/5 7/7/7
f 8/8/8 5/5/5 6/6/6
f 9/9/9 5/5/5 8/8/8
f 9/9/9 10/10/10 5/5/5
f 5/5/5 10/10/10 11/11/11
f 5/5/5 11/11/11 12/12/12
f 5/5/5 12/12/12 13/13/13
f 5/5/5 13/13/13 14/14/14
f 5/5/5 14/14/14 15/15/15
f 5/5/5 15/15/15 16/16/16
f 5/5/5 16/16/16 17/17/17
f 5/5/5 17/17/17 18/18/18
f 5/5/5 18/18/18 19/19/19
f 5/5/5 19/19/19 20/20/20
f 5/5/5 20/20/20 21/21/21
f 5/5/5 21/21/21 22/22/22
f 5/5/5 22/22/22 23/23/23
f 5/5/5 23/23/23 24/24/24
f 5/5/5 24/24/24 25/25/25
f 26/26/26 5/5/5 25/25/25
f 27/27/27 5/5/5 26/26/26
f 7/7/7 5/5/5 27/27/27
f 2/2/2 7/7/7 28/28/28
f 29/29/29 2/2/2 28/28/28
f 30/30/30 2/2/2 29/29/29
f 31/31/31 2/2/2 30/30/30
f 32/32/32 2/2/2 31/31/31
f 33/33/33 2/2/2 32/32/32
f 34/34/34 2/2/2 33/33/33
f 35/35/35 2/2/2 34/34/34
f 36/36/36 2/2/2 35/35/35
f 37/37/37 2/2/2 36/36/36
f 38/38/38 2/2/2 37/37/37
f 3/3/3 2/2/2 38/38/38
f 39/39/39 40/40/40 41/41/41
f 42/42/42 39/39/39 41/41/41
f 42/42/42 41/41/41 43/43/43
f 44/44/44 42/42/42 43/43/43
f 41/41/41 45/45/45 43/43/43
f 46/46/46 44/44/44 43/43/43
f 47/47/47 46/46/46 43/43/43
f 47/47/47 43/43/43 48/48/48
f 43/43/43 49/49/49 48/48/48
f 43/43/43 50/50/50 49/49/49
f 43/43/43 51/51/51 50/50/50
f 43/43/43 52/52/52 51/51/51
f 43/43/43 53/53/53 52/52/52
f 43/43/43 54/54/54 53/53/53
f 43/43/43 55/55/55 54/54/54
f 43/43/43 56/56/56 55/55/55
f 43/43/43 57/57/57 56/56/56
f 43/43/43 58/58/58 57/57/57
f 43/43/43 59/59/59 58/58/58
f 43/43/43 60/60/60 59/59/59
f 43/43/43 61/61/61 60/60/60
f 43/43/43 62/62/62 61/61/61
f 43/43/43 63/63/63 62/62/62
f 64/64/64 63/63/63 43/43/43
f 65/65/65 64/64/64 43/43/43
f 45/45/45 65/65/65 43/43/43
f 41/41/41 66/66/66 45/45/45
f 67/67/67 66/66/66 41/41/41
f 68/68/68 67/67/67 41/41/41
f 69/69/69 68/68/68 41/41/41
f 70/70/70 69/69/69 41/41/41
f 71/71/71 70/70/70 41/41/41
f 72/72/72 71/71/71 41/41/41
f 73/73/73 72/72/72 41/41/41
f 74/74/74 73/73/73 41/41/41
f 75/75/75 74/74/74 41/41/41
f 76/76/76 75/75/75 41/41/41
f 40/40/40 76/76/76 41/41/41
